# xmcd
#
# Track frame offsets:
#	150
#	90001
#	144185
#
# Disc length: 3149 seconds
#
# Revision: 0
# Processed by: cddbd v1.5.1PL2 Copyright (c) Steve Scherf et al.
# Submitted via: SynApp - FreeCDDB Version: 2.0
#
DISCID=130c4b03
DTITLE=CALEXICO - Live aus dem Radiokulturhaus in Wien am 17.02.2006
DYEAR=2006
DGENRE=Country
TTITLE0=Letter_to_Bowie_Knife-The_Black_Light-Smash-All_Systems_Red
TTITLE1=Woodpile-Red,_red_Rose-Bisbee_Blues
TTITLE2=Yours_and_Mine-Sunken_Waltz-Cruel_Not_even_Stevie_Nicks
EXTD=Radiomitschnitt 2006
EXTT0=
EXTT1=
EXTT2=
PLAYORDER=
